<svg xmlns="http://www.w3.org/2000/svg" viewBox="0 0 20 20"><path d="M13.245 2.817a2.783 2.783 0 014.066 3.796l-.13.14-9.606 9.606a2.001 2.001 0 01-.723.462l-.165.053-4.055 1.106a.5.5 0 01-.63-.535l.016-.08 1.106-4.054c.076-.28.212-.54.398-.76l.117-.128 9.606-9.606zm-.86 2.275L4.346 13.13a1 1 0 00-.215.321l-.042.123-.877 3.21 3.212-.875a1 1 0 00.239-.1l.107-.072.098-.085 8.038-8.04-2.521-2.52zm4.089-1.568a1.783 1.783 0 00-2.402-.11l-.12.11-.86.86 2.52 2.522.862-.86a1.783 1.783 0 00.11-2.402l-.11-.12z" fill="currentColor"/></svg>
