<svg xmlns="http://www.w3.org/2000/svg" viewBox="0 0 300 300">
  <defs>
    <!-- Face body gradients — light source top-left of each face -->
    <radialGradient id="redBody" gradientUnits="userSpaceOnUse" cx="202.9" cy="18.1" r="197">
      <stop offset="0.02" stop-color="#F8A3AC"/>
      <stop offset="0.12" stop-color="#F9ADB5"/>
      <stop offset="0.25" stop-color="#F8A3AC"/>
      <stop offset="0.45" stop-color="#F68B96"/>
      <stop offset="0.62" stop-color="#F47A87"/>
      <stop offset="0.75" stop-color="#F26876"/>
      <stop offset="0.88" stop-color="#F15665"/>
      <stop offset="0.98" stop-color="#EC323F"/>
    </radialGradient>
    <radialGradient id="yellowBody" gradientUnits="userSpaceOnUse" cx="115" cy="100.5" r="183.2">
      <stop offset="0.02" stop-color="#FFDD2D"/>
      <stop offset="0.22" stop-color="#FFD82C"/>
      <stop offset="0.48" stop-color="#FFCB2A"/>
      <stop offset="0.68" stop-color="#FFC329"/>
      <stop offset="0.82" stop-color="#FFBD27"/>
      <stop offset="0.95" stop-color="#FFB025"/>
      <stop offset="0.98" stop-color="#FFA924"/>
    </radialGradient>
    <!-- Dark rim on the red face's lower-right (away from the light) -->
    <radialGradient id="redRim" gradientUnits="userSpaceOnUse" cx="170" cy="90" r="140">
      <stop offset="0.8" stop-color="#E7262B" stop-opacity="0"/>
      <stop offset="0.92" stop-color="#E7262B" stop-opacity="0.3"/>
      <stop offset="1" stop-color="#E7262B" stop-opacity="0.7"/>
    </radialGradient>
    <!-- Glossy highlight on the yellow face's lower-left -->
    <radialGradient id="gloss" gradientUnits="objectBoundingBox" cx="0.5" cy="0.5" r="0.5">
      <stop offset="0" stop-color="#FFD569"/>
      <stop offset="0.85" stop-color="#FFD569"/>
      <stop offset="1" stop-color="#FFD569" stop-opacity="0"/>
    </radialGradient>
    <!-- Rim-light sheens along the upper-left edges + shade on yellow's left -->
    <linearGradient id="yellowSheen" gradientUnits="userSpaceOnUse" x1="0" y1="178" x2="31.6" y2="106.9">
      <stop offset="0" stop-color="#FFEFB6" stop-opacity="0.2"/>
      <stop offset="0.3" stop-color="#FFEFB6" stop-opacity="0.65"/>
      <stop offset="1" stop-color="#FFEFB6" stop-opacity="0.9"/>
    </linearGradient>
    <linearGradient id="yellowSheenEnd" gradientUnits="userSpaceOnUse" x1="31.6" y1="106.9" x2="82" y2="79">
      <stop offset="0" stop-color="#FFEFB6" stop-opacity="0.9"/>
      <stop offset="1" stop-color="#FFEFB6" stop-opacity="0"/>
    </linearGradient>
    <linearGradient id="redSheen" gradientUnits="userSpaceOnUse" x1="95" y1="81.6" x2="110.9" y2="52.9">
      <stop offset="0" stop-color="#FFE9F2" stop-opacity="0"/>
      <stop offset="1" stop-color="#FFE9F2" stop-opacity="0.75"/>
    </linearGradient>
    <linearGradient id="redSheenEnd" gradientUnits="userSpaceOnUse" x1="110.9" y1="52.9" x2="129" y2="34.8">
      <stop offset="0" stop-color="#FFE9F2" stop-opacity="0.75"/>
      <stop offset="1" stop-color="#FFE9F2" stop-opacity="0"/>
    </linearGradient>
    <linearGradient id="yellowShade" gradientUnits="userSpaceOnUse" x1="14" y1="233.5" x2="6.4" y2="144.7">
      <stop offset="0" stop-color="#FF9C1E" stop-opacity="0"/>
      <stop offset="0.45" stop-color="#FF9C1E" stop-opacity="0.45"/>
      <stop offset="0.8" stop-color="#FF9C1E" stop-opacity="0.4"/>
      <stop offset="1" stop-color="#FF9C1E" stop-opacity="0.1"/>
    </linearGradient>
    <clipPath id="clipRed"><circle cx="193.52" cy="117.43" r="106.35"/></clipPath>
    <clipPath id="clipYellow"><circle cx="105.49" cy="180.82" r="106"/></clipPath>
    <filter id="soften" x="-60%" y="-60%" width="220%" height="220%">
      <feGaussianBlur stdDeviation="1.7"/>
    </filter>
  </defs>

  <!-- red face (behind) -->
  <circle cx="193.52" cy="117.43" r="106.35" fill="url(#redBody)"/>
  <circle cx="193.52" cy="117.43" r="106.35" fill="url(#redRim)"/>
  <g fill="none" stroke-linecap="round" filter="url(#soften)" clip-path="url(#clipRed)">
    <path d="M 95,81.6 A 104.8,104.8 0 0 1 110.9,52.9" stroke="url(#redSheen)" stroke-width="3.2"/>
    <path d="M 110.9,52.9 A 104.8,104.8 0 0 1 129,34.8" stroke="url(#redSheenEnd)" stroke-width="3.2"/>
  </g>
  <g fill="#2E2829" stroke="#2E2829" stroke-width="1" stroke-linejoin="round" stroke-linecap="round">
    <ellipse cx="192.3" cy="76.5" rx="17" ry="20.7"/>
    <ellipse cx="234.7" cy="68.1" rx="15.6" ry="19.4"/>
    <!-- smile: left end continues behind the yellow face -->
    <path d="M 194,137.2
             C 203,134.9 213.5,133.1 221.5,131.1
             C 230,128.7 237.8,126.6 245,119.8
             C 248.4,116.6 252.9,112.9 256.4,110.3
             C 258.3,108.9 259.5,108.5 261.5,108.4
             C 263.4,108.3 265,109.4 265.4,111.3
             C 265.8,113.3 264.5,116.3 262,118.7
             C 258.2,122.3 252.2,126.8 247.9,131.6
             C 243.9,136.2 240.4,145.5 236.7,151.6
             C 234.5,155.2 231.7,158.9 228.2,160.2
             C 224.6,161.5 220.4,161 216.5,158.9
             C 212.3,156.6 208.3,152.5 205.4,148.5
             C 202.5,144.5 198.5,142 194,140.8 Z"/>
  </g>

  <!-- yellow face (front) -->
  <circle cx="105.49" cy="180.82" r="106" fill="url(#yellowBody)"/>
  <g fill="none" stroke-linecap="round" filter="url(#soften)" clip-path="url(#clipYellow)">
    <path d="M 14,233.5 A 105,105 0 0 1 6.4,144.7" stroke="url(#yellowShade)" stroke-width="4.5"/>
    <path d="M 1,168 A 104.5,104.5 0 0 1 31.6,106.9" stroke="url(#yellowSheen)" stroke-width="3.4"/>
    <path d="M 31.6,106.9 A 104.5,104.5 0 0 1 82,79" stroke="url(#yellowSheenEnd)" stroke-width="3.4"/>
  </g>
  <ellipse cx="81.3" cy="248.8" rx="33.5" ry="20.9" transform="rotate(18.7 81.3 248.8)" fill="url(#gloss)"/>
  <g fill="#2E2829" stroke="#2E2829" stroke-width="1" stroke-linejoin="round" stroke-linecap="round">
    <ellipse cx="105" cy="136.7" rx="17.1" ry="20.6"/>
    <ellipse cx="147.5" cy="128.3" rx="15.6" ry="19.5"/>
    <path d="M 84,191.4
             C 92,191.9 104,193.9 113,194.4
             C 124,194.9 135,191.9 145,187.4
             C 149.5,185.3 153.5,182.8 157.4,179.6
             C 161.5,176.4 166.8,171.9 171.3,169.9
             C 173,169.3 175.5,169.2 176.9,169.6
             C 178.1,170 178.6,171.5 178.5,173.2
             C 178.4,175 177.5,176.7 175.9,178.2
             C 173.5,180.4 170.5,182.6 167.3,184.9
             C 163.2,187.9 160.7,190.6 158.3,194.5
             C 154.7,200 152.2,209.1 147.6,214.7
             C 145.3,217.5 143,219.2 140,219.9
             C 136.4,220.9 132.3,220.5 128.8,218.9
             C 124,216.7 117,209.9 109.5,205.6
             C 105.6,203.4 99.9,202.6 92.6,201.8
             C 88,201.2 82,200.6 80.3,198.4
             C 79.1,196.9 78.9,194.6 79.9,193.2
             C 80.8,191.9 82.3,191.3 84,191.4 Z"/>
  </g>
</svg>
