<svg xmlns="http://www.w3.org/2000/svg" viewBox="0 0 24 24"><path d="M6.75 19.5h14.5a.75.75 0 00.102-1.493L21.25 18H6.75a.75.75 0 00-.102 1.493l.102.007zm0-15h14.5a.75.75 0 00.102-1.493L21.25 3H6.75a.75.75 0 00-.102 1.493l.102.007zm7 3.5a.75.75 0 000 1.5h7.5a.75.75 0 000-1.5h-7.5zM13 13.75a.75.75 0 01.75-.75h7.5a.75.75 0 010 1.5h-7.5a.75.75 0 01-.75-.75zm-2-2.25a4.5 4.5 0 11-9 0 4.5 4.5 0 019 0zm-4-2a.5.5 0 00-1 0V11H4.5a.5.5 0 000 1H6v1.5a.5.5 0 001 0V12h1.5a.5.5 0 000-1H7V9.5z" fill="currentColor"/></svg>
