<svg viewBox="0 0 89.2 88.7" xmlns="http://www.w3.org/2000/svg"><path fill="currentColor" d="M56.1 27.8c0 1.8-1.4 3.2-3.2 3.2-1.8 0-3.2-1.4-3.2-3.2s1.4-3.2 3.2-3.2c1.8 0 3.2 1.4 3.2 3.2"/><path fill="currentColor" d="M69.5 80.6c-.8 0-1.6-.4-2.1-1-.8-1.1-.6-2.7.5-3.6C78 68.6 84 56.8 84 44.3 84.1 22.7 66.4 5 44.6 5c-1.9 0-3.8.1-5.7.4V61c0 1.4-1.1 2.5-2.6 2.5-1.4 0-2.6-1.1-2.6-2.5V3.2c0-1.2.9-2.3 2.1-2.5 2.9-.6 5.8-.9 8.8-.9 24.6 0 44.6 19.9 44.6 44.4 0 14.1-6.8 27.5-18.2 35.8-.5.5-1 .6-1.5.6"/><path fill="currentColor" d="M44.6 88.8C20 88.8 0 68.8 0 44.4 0 30.3 6.8 16.9 18.2 8.6c1.2-.9 2.8-.6 3.6.5.8 1.1.6 2.7-.5 3.6C11.1 20 5.1 31.9 5.1 44.4c0 21.7 17.7 39.3 39.5 39.3 1.9 0 3.8-.1 5.7-.4V46.8c0-1.4 1.1-2.5 2.6-2.5 1.4 0 2.6 1.1 2.6 2.5v38.6c0 1.2-.9 2.3-2.1 2.5-2.9.6-5.8.9-8.8.9"/></svg>
